# xmcd
#
# Track frame offsets:
#	150
#	30368
#	49795
#	67083
#	91663
#	115153
#	133240
#	151628
#	174793
#	198705
#	223170
#	247030
#	266018
#	287630
#
# Disc length: 4181 seconds
#
# Revision: 2
# Processed by: cddbd v1.4PL0 Copyright (c) Steve Scherf et al.
# Submitted via: EasyCDDAExtractor 5.0.7
#
DISCID=c710530e
DTITLE=Various Artist - Ta Tinh
DYEAR=1900
DGENRE=Blues
TTITLE0=Elvis Phuong - Mau tim hoa sim
TTITLE1=Khanh Ly - Vi toi la linh muc
TTITLE2=Ngoc Minh - Bai tango cho em
TTITLE3=Thai Hien - Toi uoc mo
TTITLE4=Duy Quang - Bai cho em
TTITLE5=Giao Linh - Gio nay anh o dau
TTITLE6=Ngoc Minh - Nho thu
TTITLE7=Huong Lan - Gia tu vu khi
TTITLE8=Khanh Ly - Kinh chieu
TTITLE9=Ngoc Minh - Nguoi o lai Charlie
TTITLE10=Elvis Phuong - Ta tinh
TTITLE11=Le Thu - Con me chieu
TTITLE12=Ngoc Minh - Khi toi ve
TTITLE13=Duy Quang - 12 Thang anh oi
EXTD=
EXTT0=
EXTT1=
EXTT2=
EXTT3=
EXTT4=
EXTT5=
EXTT6=
EXTT7=
EXTT8=
EXTT9=
EXTT10=
EXTT11=
EXTT12=
EXTT13=
PLAYORDER=
